# xmcd CD database file
#
# Track frame offsets:
#       150
#       13232
#       24447
#       35090
#       48925
#       61620
#       72222
#       83720
#       94927
#       106265
#       118460
#       133017
#       144952
#       155845
#       169537
#       182595
#
# Disc length: 2609 seconds
#
# Revision: 0
# Processed by: cddbd v1.4PL0 Copyright (c) Steve Scherf et al.
# Submitted via: jack 2.99.7
#
DISCID=d50a2f10
DTITLE=Elmore James - Dust My Broom
DYEAR=1900
DGENRE=
TTITLE0=Dust My Broom
TTITLE1=Look On Yonder Wall
TTITLE2=Done Somebody Wrong
TTITLE3=It Hurts Me Too
TTITLE4=I'm Worried
TTITLE5=One Way Out
TTITLE6=Fine Little Mama
TTITLE7=Rollin' And Tumblin'
TTITLE8=Shake Your Moneymaker
TTITLE9=The Sky Is Crying
TTITLE10=Stranger Blues
TTITLE11=I Can't Stop Lovin' You
TTITLE12=Coming Home
TTITLE13=My Bleeding Heart
TTITLE14=Standing At The Crossroads
TTITLE15=Make My Dreams Come True
EXTD=
EXTT0=
EXTT1=
EXTT2=
EXTT3=
EXTT4=
EXTT5=
EXTT6=
EXTT7=
EXTT8=
EXTT9=
EXTT10=
EXTT11=
EXTT12=
EXTT13=
EXTT14=
EXTT15=
PLAYORDER=
